<mxfile host="app.diagrams.net" agent="Mozilla/5.0 (Macintosh; Intel Mac OS X 10_15_7) AppleWebKit/537.36 (KHTML, like Gecko) Chrome/134.0.0.0 Safari/537.36" version="26.1.3">
  <diagram name="задание 4" id="rfcAZliIbEC1ulGwR2Iv">
    <mxGraphModel dx="1562" dy="881" grid="1" gridSize="10" guides="1" tooltips="1" connect="1" arrows="1" fold="1" page="1" pageScale="1" pageWidth="827" pageHeight="1169" math="0" shadow="0">
      <root>
        <mxCell id="t_hbJ4NrtsQYR_Xp0jw_-0" />
        <mxCell id="t_hbJ4NrtsQYR_Xp0jw_-1" parent="t_hbJ4NrtsQYR_Xp0jw_-0" />
        <object placeholders="1" c4Name="InsureTech Prod" c4Type="SystemScopeBoundary" c4Application="Виртуальная машина" label="&lt;font style=&quot;font-size: 16px&quot;&gt;&lt;b&gt;&lt;div style=&quot;text-align: left&quot;&gt;%c4Name%&lt;/div&gt;&lt;/b&gt;&lt;/font&gt;&lt;div style=&quot;text-align: left&quot;&gt;[%c4Application%]&lt;/div&gt;" id="t_hbJ4NrtsQYR_Xp0jw_-2">
          <mxCell style="rounded=1;fontSize=11;whiteSpace=wrap;html=1;dashed=1;arcSize=20;fillColor=none;strokeColor=#666666;fontColor=#333333;labelBackgroundColor=none;align=left;verticalAlign=bottom;labelBorderColor=none;spacingTop=0;spacing=10;dashPattern=8 4;metaEdit=1;rotatable=0;perimeter=rectanglePerimeter;noLabel=0;labelPadding=0;allowArrows=0;connectable=0;expand=0;recursiveResize=0;editable=1;pointerEvents=0;absoluteArcSize=1;points=[[0.25,0,0],[0.5,0,0],[0.75,0,0],[1,0.25,0],[1,0.5,0],[1,0.75,0],[0.75,1,0],[0.5,1,0],[0.25,1,0],[0,0.75,0],[0,0.5,0],[0,0.25,0]];" parent="t_hbJ4NrtsQYR_Xp0jw_-1" vertex="1">
            <mxGeometry x="450" y="250" width="1100" height="910" as="geometry" />
          </mxCell>
        </object>
        <object placeholders="1" c4Type="core-db" c4Container="Container" c4Technology="PostgreSQL" c4Description="БД используется для хранения тарифов страховых компаний, а также заявок клиентов на страховые продукты" label="&lt;font style=&quot;font-size: 16px&quot;&gt;&lt;b&gt;%c4Type%&lt;/b&gt;&lt;/font&gt;&lt;div&gt;[%c4Container%:&amp;nbsp;%c4Technology%]&lt;/div&gt;&lt;br&gt;&lt;div&gt;&lt;font style=&quot;font-size: 11px&quot;&gt;&lt;font color=&quot;#E6E6E6&quot;&gt;%c4Description%&lt;/font&gt;&lt;/div&gt;" id="t_hbJ4NrtsQYR_Xp0jw_-3">
          <mxCell style="shape=cylinder3;size=5.9999511718749545;whiteSpace=wrap;html=1;boundedLbl=1;rounded=0;labelBackgroundColor=none;fillColor=#23A2D9;fontSize=12;fontColor=#ffffff;align=center;strokeColor=#0E7DAD;metaEdit=1;points=[[0.5,0,0],[1,0.25,0],[1,0.5,0],[1,0.75,0],[0.5,1,0],[0,0.75,0],[0,0.5,0],[0,0.25,0]];resizable=0;" parent="t_hbJ4NrtsQYR_Xp0jw_-1" vertex="1">
            <mxGeometry x="490" y="790" width="240" height="120" as="geometry" />
          </mxCell>
        </object>
        <object placeholders="1" c4Name="core-app" c4Type="Container" c4Technology="Kotlin, SpringBoot" c4Description="Монолитное приложение:&#xa;• отображает данные о доступных страховых продуктах&#xa;• оформляет новые страховки&#xa;• отображает информацию о купленных страховках" label="&lt;font style=&quot;font-size: 16px&quot;&gt;&lt;b&gt;%c4Name%&lt;/b&gt;&lt;/font&gt;&lt;div&gt;[%c4Type%: %c4Technology%]&lt;/div&gt;&lt;br&gt;&lt;div&gt;&lt;font style=&quot;font-size: 11px&quot;&gt;&lt;font color=&quot;#E6E6E6&quot;&gt;%c4Description%&lt;/font&gt;&lt;/div&gt;" id="t_hbJ4NrtsQYR_Xp0jw_-4">
          <mxCell style="rounded=1;whiteSpace=wrap;html=1;fontSize=11;labelBackgroundColor=none;fillColor=#23A2D9;fontColor=#ffffff;align=center;arcSize=10;strokeColor=#0E7DAD;metaEdit=1;resizable=0;points=[[0.25,0,0],[0.5,0,0],[0.75,0,0],[1,0.25,0],[1,0.5,0],[1,0.75,0],[0.75,1,0],[0.5,1,0],[0.25,1,0],[0,0.75,0],[0,0.5,0],[0,0.25,0]];" parent="t_hbJ4NrtsQYR_Xp0jw_-1" vertex="1">
            <mxGeometry x="490" y="550" width="240" height="120" as="geometry" />
          </mxCell>
        </object>
        <object placeholders="1" c4Type="InsureTech Web" c4Container="Container" c4Technology="JavaScript, React" c4Description="Веб-приложение InsureTech" label="&lt;font style=&quot;font-size: 16px&quot;&gt;&lt;b&gt;%c4Type%&lt;/b&gt;&lt;/font&gt;&lt;div&gt;[%c4Container%:&amp;nbsp;%c4Technology%]&lt;/div&gt;&lt;br&gt;&lt;div&gt;&lt;font style=&quot;font-size: 11px&quot;&gt;&lt;font color=&quot;#E6E6E6&quot;&gt;%c4Description%&lt;/font&gt;&lt;/div&gt;" id="t_hbJ4NrtsQYR_Xp0jw_-5">
          <mxCell style="shape=mxgraph.c4.webBrowserContainer2;whiteSpace=wrap;html=1;boundedLbl=1;rounded=0;labelBackgroundColor=none;strokeColor=#118ACD;fillColor=#23A2D9;strokeColor=#118ACD;strokeColor2=#0E7DAD;fontSize=12;fontColor=#ffffff;align=center;metaEdit=1;points=[[0.5,0,0],[1,0.25,0],[1,0.5,0],[1,0.75,0],[0.5,1,0],[0,0.75,0],[0,0.5,0],[0,0.25,0]];resizable=0;" parent="t_hbJ4NrtsQYR_Xp0jw_-1" vertex="1">
            <mxGeometry x="490" y="280" width="240" height="160" as="geometry" />
          </mxCell>
        </object>
        <object placeholders="1" c4Type="Relationship" c4Technology="REST" c4Description="1. Получения тарифов&#xa;2. Создание заявок на страховки" label="&lt;div style=&quot;text-align: left&quot;&gt;&lt;div style=&quot;text-align: center&quot;&gt;&lt;b&gt;%c4Description%&lt;/b&gt;&lt;/div&gt;&lt;div style=&quot;text-align: center&quot;&gt;[%c4Technology%]&lt;/div&gt;&lt;/div&gt;" id="t_hbJ4NrtsQYR_Xp0jw_-6">
          <mxCell style="endArrow=blockThin;html=1;fontSize=10;fontColor=#404040;strokeWidth=1;endFill=1;strokeColor=#828282;elbow=vertical;metaEdit=1;endSize=14;startSize=14;jumpStyle=arc;jumpSize=16;rounded=0;edgeStyle=orthogonalEdgeStyle;" parent="t_hbJ4NrtsQYR_Xp0jw_-1" source="t_hbJ4NrtsQYR_Xp0jw_-5" target="t_hbJ4NrtsQYR_Xp0jw_-4" edge="1">
            <mxGeometry x="-0.2727" width="240" relative="1" as="geometry">
              <mxPoint x="550" y="410" as="sourcePoint" />
              <mxPoint x="790" y="410" as="targetPoint" />
              <Array as="points">
                <mxPoint x="540" y="500" />
                <mxPoint x="540" y="500" />
              </Array>
              <mxPoint as="offset" />
            </mxGeometry>
          </mxCell>
        </object>
        <object placeholders="1" c4Type="Relationship" c4Technology="TCP" c4Description="Работа с данными" label="&lt;div style=&quot;text-align: left&quot;&gt;&lt;div style=&quot;text-align: center&quot;&gt;&lt;b&gt;%c4Description%&lt;/b&gt;&lt;/div&gt;&lt;div style=&quot;text-align: center&quot;&gt;[%c4Technology%]&lt;/div&gt;&lt;/div&gt;" id="t_hbJ4NrtsQYR_Xp0jw_-7">
          <mxCell style="endArrow=blockThin;html=1;fontSize=10;fontColor=#404040;strokeWidth=1;endFill=1;strokeColor=#828282;elbow=vertical;metaEdit=1;endSize=14;startSize=14;jumpStyle=arc;jumpSize=16;rounded=0;edgeStyle=orthogonalEdgeStyle;" parent="t_hbJ4NrtsQYR_Xp0jw_-1" source="t_hbJ4NrtsQYR_Xp0jw_-4" target="t_hbJ4NrtsQYR_Xp0jw_-3" edge="1">
            <mxGeometry width="240" relative="1" as="geometry">
              <mxPoint x="600" y="720" as="sourcePoint" />
              <mxPoint x="840" y="720" as="targetPoint" />
            </mxGeometry>
          </mxCell>
        </object>
        <object placeholders="1" c4Name="Системы партнеров" c4Type="Software System" c4Description="Системы партнеров, интегрирующие страховые услуги в свои продукты" label="&lt;font style=&quot;font-size: 16px&quot;&gt;&lt;b&gt;%c4Name%&lt;/b&gt;&lt;/font&gt;&lt;div&gt;[%c4Type%]&lt;/div&gt;&lt;br&gt;&lt;div&gt;&lt;font style=&quot;font-size: 11px&quot;&gt;&lt;font color=&quot;#cccccc&quot;&gt;%c4Description%&lt;/font&gt;&lt;/div&gt;" id="t_hbJ4NrtsQYR_Xp0jw_-8">
          <mxCell style="rounded=1;whiteSpace=wrap;html=1;labelBackgroundColor=none;fillColor=#8C8496;fontColor=#ffffff;align=center;arcSize=10;strokeColor=#736782;metaEdit=1;resizable=0;points=[[0.25,0,0],[0.5,0,0],[0.75,0,0],[1,0.25,0],[1,0.5,0],[1,0.75,0],[0.75,1,0],[0.5,1,0],[0.25,1,0],[0,0.75,0],[0,0.5,0],[0,0.25,0]];" parent="t_hbJ4NrtsQYR_Xp0jw_-1" vertex="1">
            <mxGeometry x="40" y="635" width="240" height="120" as="geometry" />
          </mxCell>
        </object>
        <object placeholders="1" c4Name="Системы партнеров" c4Type="Software System" c4Description="Системы партнеров, интегрирующие страховые услуги в свои продукты" label="&lt;font style=&quot;font-size: 16px&quot;&gt;&lt;b&gt;%c4Name%&lt;/b&gt;&lt;/font&gt;&lt;div&gt;[%c4Type%]&lt;/div&gt;&lt;br&gt;&lt;div&gt;&lt;font style=&quot;font-size: 11px&quot;&gt;&lt;font color=&quot;#cccccc&quot;&gt;%c4Description%&lt;/font&gt;&lt;/div&gt;" id="t_hbJ4NrtsQYR_Xp0jw_-9">
          <mxCell style="rounded=1;whiteSpace=wrap;html=1;labelBackgroundColor=none;fillColor=#8C8496;fontColor=#ffffff;align=center;arcSize=10;strokeColor=#736782;metaEdit=1;resizable=0;points=[[0.25,0,0],[0.5,0,0],[0.75,0,0],[1,0.25,0],[1,0.5,0],[1,0.75,0],[0.75,1,0],[0.5,1,0],[0.25,1,0],[0,0.75,0],[0,0.5,0],[0,0.25,0]];" parent="t_hbJ4NrtsQYR_Xp0jw_-1" vertex="1">
            <mxGeometry x="50" y="645" width="240" height="120" as="geometry" />
          </mxCell>
        </object>
        <object placeholders="1" c4Name="Системы партнёров" c4Type="Software System" c4Description="Системы партнёров, интегрирующие страховые услуги в свои продукты" label="&lt;font style=&quot;font-size: 16px&quot;&gt;&lt;b&gt;%c4Name%&lt;/b&gt;&lt;/font&gt;&lt;div&gt;[%c4Type%]&lt;/div&gt;&lt;br&gt;&lt;div&gt;&lt;font style=&quot;font-size: 11px&quot;&gt;&lt;font color=&quot;#cccccc&quot;&gt;%c4Description%&lt;/font&gt;&lt;/div&gt;" id="t_hbJ4NrtsQYR_Xp0jw_-10">
          <mxCell style="rounded=1;whiteSpace=wrap;html=1;labelBackgroundColor=none;fillColor=#8C8496;fontColor=#ffffff;align=center;arcSize=10;strokeColor=#736782;metaEdit=1;resizable=0;points=[[0.25,0,0],[0.5,0,0],[0.75,0,0],[1,0.25,0],[1,0.5,0],[1,0.75,0],[0.75,1,0],[0.5,1,0],[0.25,1,0],[0,0.75,0],[0,0.5,0],[0,0.25,0]];" parent="t_hbJ4NrtsQYR_Xp0jw_-1" vertex="1">
            <mxGeometry x="60" y="655" width="240" height="120" as="geometry" />
          </mxCell>
        </object>
        <object placeholders="1" c4Type="Relationship" c4Technology="REST" c4Description="Оформление страховок" label="&lt;div style=&quot;text-align: left&quot;&gt;&lt;div style=&quot;text-align: center&quot;&gt;&lt;b&gt;%c4Description%&lt;/b&gt;&lt;/div&gt;&lt;div style=&quot;text-align: center&quot;&gt;[%c4Technology%]&lt;/div&gt;&lt;/div&gt;" id="t_hbJ4NrtsQYR_Xp0jw_-11">
          <mxCell style="endArrow=blockThin;html=1;fontSize=10;fontColor=#404040;strokeWidth=1;endFill=1;strokeColor=#828282;elbow=vertical;metaEdit=1;endSize=14;startSize=14;jumpStyle=arc;jumpSize=16;rounded=0;edgeStyle=orthogonalEdgeStyle;" parent="t_hbJ4NrtsQYR_Xp0jw_-1" source="t_hbJ4NrtsQYR_Xp0jw_-10" target="t_hbJ4NrtsQYR_Xp0jw_-4" edge="1">
            <mxGeometry x="-0.2075" width="240" relative="1" as="geometry">
              <mxPoint x="50" y="535" as="sourcePoint" />
              <mxPoint x="490" y="715" as="targetPoint" />
              <Array as="points">
                <mxPoint x="370" y="715" />
                <mxPoint x="370" y="640" />
              </Array>
              <mxPoint as="offset" />
            </mxGeometry>
          </mxCell>
        </object>
        <object placeholders="1" c4Name="Системы страховых компаний" c4Type="Software System" c4Description="Системы страховых компаний, предоставляющие API для получения актуальных тарифов, андерайтинга и оформления страховых продуктов" label="&lt;font style=&quot;font-size: 16px&quot;&gt;&lt;b&gt;%c4Name%&lt;/b&gt;&lt;/font&gt;&lt;div&gt;[%c4Type%]&lt;/div&gt;&lt;br&gt;&lt;div&gt;&lt;font style=&quot;font-size: 11px&quot;&gt;&lt;font color=&quot;#cccccc&quot;&gt;%c4Description%&lt;/font&gt;&lt;/div&gt;" id="t_hbJ4NrtsQYR_Xp0jw_-12">
          <mxCell style="rounded=1;whiteSpace=wrap;html=1;labelBackgroundColor=none;fillColor=#8C8496;fontColor=#ffffff;align=center;arcSize=10;strokeColor=#736782;metaEdit=1;resizable=0;points=[[0.25,0,0],[0.5,0,0],[0.75,0,0],[1,0.25,0],[1,0.5,0],[1,0.75,0],[0.75,1,0],[0.5,1,0],[0.25,1,0],[0,0.75,0],[0,0.5,0],[0,0.25,0]];" parent="t_hbJ4NrtsQYR_Xp0jw_-1" vertex="1">
            <mxGeometry x="1620" y="660" width="240" height="120" as="geometry" />
          </mxCell>
        </object>
        <object placeholders="1" c4Name="Системы страховых компаний" c4Type="Software System" c4Description="Системы страховых компаний, предоставляющие API для получения актуальных тарифов, андерайтинга и оформления страховых продуктов" label="&lt;font style=&quot;font-size: 16px&quot;&gt;&lt;b&gt;%c4Name%&lt;/b&gt;&lt;/font&gt;&lt;div&gt;[%c4Type%]&lt;/div&gt;&lt;br&gt;&lt;div&gt;&lt;font style=&quot;font-size: 11px&quot;&gt;&lt;font color=&quot;#cccccc&quot;&gt;%c4Description%&lt;/font&gt;&lt;/div&gt;" id="t_hbJ4NrtsQYR_Xp0jw_-13">
          <mxCell style="rounded=1;whiteSpace=wrap;html=1;labelBackgroundColor=none;fillColor=#8C8496;fontColor=#ffffff;align=center;arcSize=10;strokeColor=#736782;metaEdit=1;resizable=0;points=[[0.25,0,0],[0.5,0,0],[0.75,0,0],[1,0.25,0],[1,0.5,0],[1,0.75,0],[0.75,1,0],[0.5,1,0],[0.25,1,0],[0,0.75,0],[0,0.5,0],[0,0.25,0]];" parent="t_hbJ4NrtsQYR_Xp0jw_-1" vertex="1">
            <mxGeometry x="1630" y="670" width="240" height="120" as="geometry" />
          </mxCell>
        </object>
        <object placeholders="1" c4Name="Системы страховых компаний" c4Type="Software System" c4Description="Предоставляют API для получения актуальных тарифов, андерайтинга и оформления страховых продуктов" label="&lt;font style=&quot;font-size: 16px&quot;&gt;&lt;b&gt;%c4Name%&lt;/b&gt;&lt;/font&gt;&lt;div&gt;[%c4Type%]&lt;/div&gt;&lt;br&gt;&lt;div&gt;&lt;font style=&quot;font-size: 11px&quot;&gt;&lt;font color=&quot;#cccccc&quot;&gt;%c4Description%&lt;/font&gt;&lt;/div&gt;" id="t_hbJ4NrtsQYR_Xp0jw_-14">
          <mxCell style="rounded=1;whiteSpace=wrap;html=1;labelBackgroundColor=none;fillColor=#8C8496;fontColor=#ffffff;align=center;arcSize=9;strokeColor=#736782;metaEdit=1;resizable=0;points=[[0.25,0,0],[0.5,0,0],[0.75,0,0],[1,0.25,0],[1,0.5,0],[1,0.75,0],[0.75,1,0],[0.5,1,0],[0.25,1,0],[0,0.75,0],[0,0.5,0],[0,0.25,0]];" parent="t_hbJ4NrtsQYR_Xp0jw_-1" vertex="1">
            <mxGeometry x="1640" y="680" width="240" height="120" as="geometry" />
          </mxCell>
        </object>
        <mxCell id="t_hbJ4NrtsQYR_Xp0jw_-15" style="edgeStyle=orthogonalEdgeStyle;rounded=0;orthogonalLoop=1;jettySize=auto;html=1;entryX=1;entryY=0.278;entryDx=0;entryDy=0;entryPerimeter=0;" parent="t_hbJ4NrtsQYR_Xp0jw_-1" source="t_hbJ4NrtsQYR_Xp0jw_-16" target="t_hbJ4NrtsQYR_Xp0jw_-35" edge="1">
          <mxGeometry relative="1" as="geometry">
            <mxPoint x="1100" y="560" as="targetPoint" />
            <Array as="points">
              <mxPoint x="1116" y="600" />
              <mxPoint x="1116" y="540" />
              <mxPoint x="1090" y="540" />
            </Array>
          </mxGeometry>
        </mxCell>
        <object placeholders="1" c4Name="ins-product-aggregator" c4Type="Container" c4Technology="Kotlin, SpringBoot" c4Description="Сервис для интеграции со страховыми компаниями с целью получения информации по страховым продуктам. Предоставляет единый API для core-app" label="&lt;font style=&quot;font-size: 16px&quot;&gt;&lt;b&gt;%c4Name%&lt;/b&gt;&lt;/font&gt;&lt;div&gt;[%c4Type%: %c4Technology%]&lt;/div&gt;&lt;br&gt;&lt;div&gt;&lt;font style=&quot;font-size: 11px&quot;&gt;&lt;font color=&quot;#E6E6E6&quot;&gt;%c4Description%&lt;/font&gt;&lt;/div&gt;" id="t_hbJ4NrtsQYR_Xp0jw_-16">
          <mxCell style="rounded=1;whiteSpace=wrap;html=1;fontSize=11;labelBackgroundColor=none;fillColor=#23A2D9;fontColor=#ffffff;align=center;arcSize=10;strokeColor=#0E7DAD;metaEdit=1;resizable=0;points=[[0.25,0,0],[0.5,0,0],[0.75,0,0],[1,0.25,0],[1,0.5,0],[1,0.75,0],[0.75,1,0],[0.5,1,0],[0.25,1,0],[0,0.75,0],[0,0.5,0],[0,0.25,0]];" parent="t_hbJ4NrtsQYR_Xp0jw_-1" vertex="1">
            <mxGeometry x="1150" y="585" width="240" height="120" as="geometry" />
          </mxCell>
        </object>
        <object placeholders="1" c4Type="Relationship" c4Technology="REST / SOAP / GraphQL" c4Description="Получение информации &#xa;по продуктам и тарифам" label="&lt;div style=&quot;text-align: left&quot;&gt;&lt;div style=&quot;text-align: center&quot;&gt;&lt;b&gt;%c4Description%&lt;/b&gt;&lt;/div&gt;&lt;div style=&quot;text-align: center&quot;&gt;[%c4Technology%]&lt;/div&gt;&lt;/div&gt;" id="t_hbJ4NrtsQYR_Xp0jw_-17">
          <mxCell style="endArrow=blockThin;html=1;fontSize=10;fontColor=#404040;strokeWidth=1;endFill=1;strokeColor=#828282;elbow=vertical;metaEdit=1;endSize=14;startSize=14;jumpStyle=arc;jumpSize=16;rounded=0;edgeStyle=orthogonalEdgeStyle;" parent="t_hbJ4NrtsQYR_Xp0jw_-1" source="t_hbJ4NrtsQYR_Xp0jw_-16" target="t_hbJ4NrtsQYR_Xp0jw_-12" edge="1">
            <mxGeometry x="-0.2143" width="240" relative="1" as="geometry">
              <mxPoint x="870" y="510" as="sourcePoint" />
              <mxPoint x="1110" y="510" as="targetPoint" />
              <mxPoint as="offset" />
              <Array as="points">
                <mxPoint x="1460" y="610" />
                <mxPoint x="1460" y="700" />
              </Array>
            </mxGeometry>
          </mxCell>
        </object>
        <object placeholders="1" c4Type="Relationship" c4Technology="REST" c4Description="Получение информации &#xa;по продуктам и тарифам" label="&lt;div style=&quot;text-align: left&quot;&gt;&lt;div style=&quot;text-align: center&quot;&gt;&lt;b&gt;%c4Description%&lt;/b&gt;&lt;/div&gt;&lt;div style=&quot;text-align: center&quot;&gt;[%c4Technology%]&lt;/div&gt;&lt;/div&gt;" id="t_hbJ4NrtsQYR_Xp0jw_-18">
          <mxCell style="endArrow=blockThin;html=1;fontSize=10;fontColor=#404040;strokeWidth=1;endFill=1;strokeColor=#828282;elbow=vertical;metaEdit=1;endSize=14;startSize=14;jumpStyle=arc;jumpSize=16;rounded=0;edgeStyle=orthogonalEdgeStyle;entryX=0.015;entryY=0.277;entryDx=0;entryDy=0;entryPerimeter=0;" parent="t_hbJ4NrtsQYR_Xp0jw_-1" source="t_hbJ4NrtsQYR_Xp0jw_-4" target="t_hbJ4NrtsQYR_Xp0jw_-35" edge="1">
            <mxGeometry x="-0.1585" width="240" relative="1" as="geometry">
              <mxPoint x="1190" y="620" as="sourcePoint" />
              <mxPoint x="1010" y="570" as="targetPoint" />
              <mxPoint as="offset" />
              <Array as="points">
                <mxPoint x="970" y="620" />
                <mxPoint x="970" y="540" />
              </Array>
            </mxGeometry>
          </mxCell>
        </object>
        <object placeholders="1" c4Name="ins-comp-settlement" c4Type="Container" c4Technology="Kotlin, SpringBoot" c4Description="Сервис для осуществления взаиморасчётов со страховыми компаниями" label="&lt;font style=&quot;font-size: 16px&quot;&gt;&lt;b&gt;%c4Name%&lt;/b&gt;&lt;/font&gt;&lt;div&gt;[%c4Type%: %c4Technology%]&lt;/div&gt;&lt;br&gt;&lt;div&gt;&lt;font style=&quot;font-size: 11px&quot;&gt;&lt;font color=&quot;#E6E6E6&quot;&gt;%c4Description%&lt;/font&gt;&lt;/div&gt;" id="t_hbJ4NrtsQYR_Xp0jw_-19">
          <mxCell style="rounded=1;whiteSpace=wrap;html=1;fontSize=11;labelBackgroundColor=none;fillColor=#23A2D9;fontColor=#ffffff;align=center;arcSize=10;strokeColor=#0E7DAD;metaEdit=1;resizable=0;points=[[0.25,0,0],[0.5,0,0],[0.75,0,0],[1,0.25,0],[1,0.5,0],[1,0.75,0],[0.75,1,0],[0.5,1,0],[0.25,1,0],[0,0.75,0],[0,0.5,0],[0,0.25,0]];" parent="t_hbJ4NrtsQYR_Xp0jw_-1" vertex="1">
            <mxGeometry x="940" y="790" width="240" height="120" as="geometry" />
          </mxCell>
        </object>
        <object placeholders="1" c4Name="Клиент" c4Type="Person" c4Description="Клиент" label="&lt;font style=&quot;font-size: 16px&quot;&gt;&lt;b&gt;%c4Name%&lt;/b&gt;&lt;/font&gt;&lt;div&gt;[%c4Type%]&lt;/div&gt;&lt;br&gt;&lt;div&gt;&lt;font style=&quot;font-size: 11px&quot;&gt;&lt;font color=&quot;#cccccc&quot;&gt;%c4Description%&lt;/font&gt;&lt;/div&gt;" id="t_hbJ4NrtsQYR_Xp0jw_-20">
          <mxCell style="html=1;fontSize=11;dashed=0;whiteSpace=wrap;fillColor=#083F75;strokeColor=#06315C;fontColor=#ffffff;shape=mxgraph.c4.person2;align=center;metaEdit=1;points=[[0.5,0,0],[1,0.5,0],[1,0.75,0],[0.75,1,0],[0.5,1,0],[0.25,1,0],[0,0.75,0],[0,0.5,0]];resizable=0;" parent="t_hbJ4NrtsQYR_Xp0jw_-1" vertex="1">
            <mxGeometry x="510" y="40" width="200" height="180" as="geometry" />
          </mxCell>
        </object>
        <object placeholders="1" c4Type="Relationship" id="t_hbJ4NrtsQYR_Xp0jw_-21">
          <mxCell style="endArrow=blockThin;html=1;fontSize=10;fontColor=#404040;strokeWidth=1;endFill=1;strokeColor=#828282;elbow=vertical;metaEdit=1;endSize=14;startSize=14;jumpStyle=arc;jumpSize=16;rounded=0;edgeStyle=orthogonalEdgeStyle;" parent="t_hbJ4NrtsQYR_Xp0jw_-1" source="t_hbJ4NrtsQYR_Xp0jw_-20" target="t_hbJ4NrtsQYR_Xp0jw_-5" edge="1">
            <mxGeometry width="240" relative="1" as="geometry">
              <mxPoint x="650" y="130" as="sourcePoint" />
              <mxPoint x="890" y="130" as="targetPoint" />
            </mxGeometry>
          </mxCell>
        </object>
        <object placeholders="1" c4Type="ins-comp-settlement-db" c4Container="Container" c4Technology="PostgreSQL" c4Description="БД используется для хранения данных об оформленных страховках и условиях взаиморасчётов с клиентами" label="&lt;font style=&quot;font-size: 16px&quot;&gt;&lt;b&gt;%c4Type%&lt;/b&gt;&lt;/font&gt;&lt;div&gt;[%c4Container%:&amp;nbsp;%c4Technology%]&lt;/div&gt;&lt;br&gt;&lt;div&gt;&lt;font style=&quot;font-size: 11px&quot;&gt;&lt;font color=&quot;#E6E6E6&quot;&gt;%c4Description%&lt;/font&gt;&lt;/div&gt;" id="t_hbJ4NrtsQYR_Xp0jw_-22">
          <mxCell style="shape=cylinder3;size=8.50981588924617;whiteSpace=wrap;html=1;boundedLbl=1;rounded=0;labelBackgroundColor=none;fillColor=#23A2D9;fontSize=12;fontColor=#ffffff;align=center;strokeColor=#0E7DAD;metaEdit=1;points=[[0.5,0,0],[1,0.25,0],[1,0.5,0],[1,0.75,0],[0.5,1,0],[0,0.75,0],[0,0.5,0],[0,0.25,0]];resizable=0;" parent="t_hbJ4NrtsQYR_Xp0jw_-1" vertex="1">
            <mxGeometry x="1060" y="1030" width="240" height="120" as="geometry" />
          </mxCell>
        </object>
        <object placeholders="1" c4Type="Relationship" c4Technology="TCP" c4Description="Работа с данными" label="&lt;div style=&quot;text-align: left&quot;&gt;&lt;div style=&quot;text-align: center&quot;&gt;&lt;b&gt;%c4Description%&lt;/b&gt;&lt;/div&gt;&lt;div style=&quot;text-align: center&quot;&gt;[%c4Technology%]&lt;/div&gt;&lt;/div&gt;" id="t_hbJ4NrtsQYR_Xp0jw_-23">
          <mxCell style="endArrow=blockThin;html=1;fontSize=10;fontColor=#404040;strokeWidth=1;endFill=1;strokeColor=#828282;elbow=vertical;metaEdit=1;endSize=14;startSize=14;jumpStyle=arc;jumpSize=16;rounded=0;edgeStyle=orthogonalEdgeStyle;" parent="t_hbJ4NrtsQYR_Xp0jw_-1" source="t_hbJ4NrtsQYR_Xp0jw_-19" target="t_hbJ4NrtsQYR_Xp0jw_-22" edge="1">
            <mxGeometry width="240" relative="1" as="geometry">
              <mxPoint x="740" y="920" as="sourcePoint" />
              <mxPoint x="740" y="1040" as="targetPoint" />
            </mxGeometry>
          </mxCell>
        </object>
        <object placeholders="1" c4Type="Relationship" c4Technology="REST / SOAP / GraphQL" c4Description="Передача данных для взаиморасчётов" label="&lt;div style=&quot;text-align: left&quot;&gt;&lt;div style=&quot;text-align: center&quot;&gt;&lt;b&gt;%c4Description%&lt;/b&gt;&lt;/div&gt;&lt;div style=&quot;text-align: center&quot;&gt;[%c4Technology%]&lt;/div&gt;&lt;/div&gt;" id="t_hbJ4NrtsQYR_Xp0jw_-24">
          <mxCell style="endArrow=blockThin;html=1;fontSize=10;fontColor=#404040;strokeWidth=1;endFill=1;strokeColor=#828282;elbow=vertical;metaEdit=1;endSize=14;startSize=14;jumpStyle=arc;jumpSize=16;rounded=0;edgeStyle=orthogonalEdgeStyle;entryX=0;entryY=0.795;entryDx=0;entryDy=0;entryPerimeter=0;" parent="t_hbJ4NrtsQYR_Xp0jw_-1" source="t_hbJ4NrtsQYR_Xp0jw_-19" target="t_hbJ4NrtsQYR_Xp0jw_-12" edge="1">
            <mxGeometry x="-0.2207" width="240" relative="1" as="geometry">
              <mxPoint x="1160" y="620" as="sourcePoint" />
              <mxPoint x="1350" y="710" as="targetPoint" />
              <mxPoint as="offset" />
              <Array as="points">
                <mxPoint x="1460" y="850" />
                <mxPoint x="1460" y="755" />
              </Array>
            </mxGeometry>
          </mxCell>
        </object>
        <object placeholders="1" c4Type="Relationship" c4Technology="REST" c4Description="Получение информации &#xa;по продуктам и тарифам" label="&lt;div style=&quot;text-align: left&quot;&gt;&lt;div style=&quot;text-align: center&quot;&gt;&lt;b&gt;%c4Description%&lt;/b&gt;&lt;/div&gt;&lt;div style=&quot;text-align: center&quot;&gt;[%c4Technology%]&lt;/div&gt;&lt;/div&gt;" id="t_hbJ4NrtsQYR_Xp0jw_-25">
          <mxCell style="endArrow=blockThin;html=1;fontSize=10;fontColor=#404040;strokeWidth=1;endFill=1;strokeColor=#828282;elbow=vertical;metaEdit=1;endSize=14;startSize=14;jumpStyle=arc;jumpSize=16;rounded=0;edgeStyle=orthogonalEdgeStyle;entryX=-0.006;entryY=0.851;entryDx=0;entryDy=0;entryPerimeter=0;" parent="t_hbJ4NrtsQYR_Xp0jw_-1" source="t_hbJ4NrtsQYR_Xp0jw_-19" target="t_hbJ4NrtsQYR_Xp0jw_-35" edge="1">
            <mxGeometry x="-0.771" width="240" relative="1" as="geometry">
              <mxPoint x="890" y="590" as="sourcePoint" />
              <mxPoint x="1070" y="590" as="targetPoint" />
              <mxPoint as="offset" />
              <Array as="points">
                <mxPoint x="1060" y="710" />
                <mxPoint x="930" y="710" />
                <mxPoint x="930" y="655" />
              </Array>
            </mxGeometry>
          </mxCell>
        </object>
        <object placeholders="1" c4Type="Relationship" c4Technology="REST" c4Description="Получение информации &#xa;об оформленных страховках" label="&lt;div style=&quot;text-align: left&quot;&gt;&lt;div style=&quot;text-align: center&quot;&gt;&lt;b&gt;%c4Description%&lt;/b&gt;&lt;/div&gt;&lt;div style=&quot;text-align: center&quot;&gt;[%c4Technology%]&lt;/div&gt;&lt;/div&gt;" id="t_hbJ4NrtsQYR_Xp0jw_-26">
          <mxCell style="endArrow=blockThin;html=1;fontSize=10;fontColor=#404040;strokeWidth=1;endFill=1;strokeColor=#828282;elbow=vertical;metaEdit=1;endSize=14;startSize=14;jumpStyle=arc;jumpSize=16;rounded=0;edgeStyle=orthogonalEdgeStyle;" parent="t_hbJ4NrtsQYR_Xp0jw_-1" source="t_hbJ4NrtsQYR_Xp0jw_-19" target="t_hbJ4NrtsQYR_Xp0jw_-4" edge="1">
            <mxGeometry width="240" relative="1" as="geometry">
              <mxPoint x="740" y="590" as="sourcePoint" />
              <mxPoint x="920" y="590" as="targetPoint" />
              <mxPoint x="-1" as="offset" />
              <Array as="points">
                <mxPoint x="830" y="850" />
                <mxPoint x="830" y="650" />
              </Array>
            </mxGeometry>
          </mxCell>
        </object>
        <object placeholders="1" c4Name="Платёжный сервис" c4Type="Software System" c4Description="Внешний платёжный сервис, через который осуществляется оплата страховок. Деньги уходят на счета страховых компаний" label="&lt;font style=&quot;font-size: 16px&quot;&gt;&lt;b&gt;%c4Name%&lt;/b&gt;&lt;/font&gt;&lt;div&gt;[%c4Type%]&lt;/div&gt;&lt;br&gt;&lt;div&gt;&lt;font style=&quot;font-size: 11px&quot;&gt;&lt;font color=&quot;#cccccc&quot;&gt;%c4Description%&lt;/font&gt;&lt;/div&gt;" id="t_hbJ4NrtsQYR_Xp0jw_-27">
          <mxCell style="rounded=1;whiteSpace=wrap;html=1;labelBackgroundColor=none;fillColor=#8C8496;fontColor=#ffffff;align=center;arcSize=10;strokeColor=#736782;metaEdit=1;resizable=0;points=[[0.25,0,0],[0.5,0,0],[0.75,0,0],[1,0.25,0],[1,0.5,0],[1,0.75,0],[0.75,1,0],[0.5,1,0],[0.25,1,0],[0,0.75,0],[0,0.5,0],[0,0.25,0]];" parent="t_hbJ4NrtsQYR_Xp0jw_-1" vertex="1">
            <mxGeometry x="40" y="440" width="240" height="120" as="geometry" />
          </mxCell>
        </object>
        <object placeholders="1" c4Type="Relationship" c4Technology="HTTP" c4Description="Проведение оплаты &#xa;за страховки" label="&lt;div style=&quot;text-align: left&quot;&gt;&lt;div style=&quot;text-align: center&quot;&gt;&lt;b&gt;%c4Description%&lt;/b&gt;&lt;/div&gt;&lt;div style=&quot;text-align: center&quot;&gt;[%c4Technology%]&lt;/div&gt;&lt;/div&gt;" id="t_hbJ4NrtsQYR_Xp0jw_-28">
          <mxCell style="endArrow=blockThin;html=1;fontSize=10;fontColor=#404040;strokeWidth=1;endFill=1;strokeColor=#828282;elbow=vertical;metaEdit=1;endSize=14;startSize=14;jumpStyle=arc;jumpSize=16;rounded=0;edgeStyle=orthogonalEdgeStyle;" parent="t_hbJ4NrtsQYR_Xp0jw_-1" source="t_hbJ4NrtsQYR_Xp0jw_-4" target="t_hbJ4NrtsQYR_Xp0jw_-27" edge="1">
            <mxGeometry x="0.1034" width="240" relative="1" as="geometry">
              <mxPoint x="310" y="725" as="sourcePoint" />
              <mxPoint x="500" y="650" as="targetPoint" />
              <Array as="points">
                <mxPoint x="370" y="580" />
                <mxPoint x="370" y="500" />
              </Array>
              <mxPoint as="offset" />
            </mxGeometry>
          </mxCell>
        </object>
        <object placeholders="1" c4Type="Relationship" c4Technology="HTTP" c4Description="Проведение оплаты &#xa;за страховки (redirect)" label="&lt;div style=&quot;text-align: left&quot;&gt;&lt;div style=&quot;text-align: center&quot;&gt;&lt;b&gt;%c4Description%&lt;/b&gt;&lt;/div&gt;&lt;div style=&quot;text-align: center&quot;&gt;[%c4Technology%]&lt;/div&gt;&lt;/div&gt;" id="t_hbJ4NrtsQYR_Xp0jw_-29">
          <mxCell style="endArrow=blockThin;html=1;fontSize=10;fontColor=#404040;strokeWidth=1;endFill=1;strokeColor=#828282;elbow=vertical;metaEdit=1;endSize=14;startSize=14;jumpStyle=arc;jumpSize=16;rounded=0;edgeStyle=orthogonalEdgeStyle;" parent="t_hbJ4NrtsQYR_Xp0jw_-1" source="t_hbJ4NrtsQYR_Xp0jw_-5" target="t_hbJ4NrtsQYR_Xp0jw_-27" edge="1">
            <mxGeometry x="0.1034" width="240" relative="1" as="geometry">
              <mxPoint x="500" y="590" as="sourcePoint" />
              <mxPoint x="290" y="510" as="targetPoint" />
              <Array as="points">
                <mxPoint x="140" y="350" />
              </Array>
              <mxPoint as="offset" />
            </mxGeometry>
          </mxCell>
        </object>
        <object placeholders="1" c4Name="client-info" c4Type="Container" c4Technology="Kotlin, SpringBoot" c4Description="Сервис для учёта клиентских данных" label="&lt;font style=&quot;font-size: 16px&quot;&gt;&lt;b&gt;%c4Name%&lt;/b&gt;&lt;/font&gt;&lt;div&gt;[%c4Type%: %c4Technology%]&lt;/div&gt;&lt;br&gt;&lt;div&gt;&lt;font style=&quot;font-size: 11px&quot;&gt;&lt;font color=&quot;#E6E6E6&quot;&gt;%c4Description%&lt;/font&gt;&lt;/div&gt;" id="t_hbJ4NrtsQYR_Xp0jw_-30">
          <mxCell style="rounded=1;whiteSpace=wrap;html=1;fontSize=11;labelBackgroundColor=none;fillColor=#23A2D9;fontColor=#ffffff;align=center;arcSize=10;strokeColor=#0E7DAD;metaEdit=1;resizable=0;points=[[0.25,0,0],[0.5,0,0],[0.75,0,0],[1,0.25,0],[1,0.5,0],[1,0.75,0],[0.75,1,0],[0.5,1,0],[0.25,1,0],[0,0.75,0],[0,0.5,0],[0,0.25,0]];" parent="t_hbJ4NrtsQYR_Xp0jw_-1" vertex="1">
            <mxGeometry x="910" y="300" width="240" height="120" as="geometry" />
          </mxCell>
        </object>
        <object placeholders="1" c4Type="ins-comp-settlement-db" c4Container="Container" c4Technology="PostgreSQL" c4Description="БД используется для хранения данных клиентов: ФИО, телефон, паспорт и др. Информация необходима для оформления страховок" label="&lt;font style=&quot;font-size: 16px&quot;&gt;&lt;b&gt;%c4Type%&lt;/b&gt;&lt;/font&gt;&lt;div&gt;[%c4Container%:&amp;nbsp;%c4Technology%]&lt;/div&gt;&lt;br&gt;&lt;div&gt;&lt;font style=&quot;font-size: 11px&quot;&gt;&lt;font color=&quot;#E6E6E6&quot;&gt;%c4Description%&lt;/font&gt;&lt;/div&gt;" id="t_hbJ4NrtsQYR_Xp0jw_-31">
          <mxCell style="shape=cylinder3;size=6.172056136592715;whiteSpace=wrap;html=1;boundedLbl=1;rounded=0;labelBackgroundColor=none;fillColor=#23A2D9;fontSize=12;fontColor=#ffffff;align=center;strokeColor=#0E7DAD;metaEdit=1;points=[[0.5,0,0],[1,0.25,0],[1,0.5,0],[1,0.75,0],[0.5,1,0],[0,0.75,0],[0,0.5,0],[0,0.25,0]];resizable=0;" parent="t_hbJ4NrtsQYR_Xp0jw_-1" vertex="1">
            <mxGeometry x="1290" y="300" width="240" height="120" as="geometry" />
          </mxCell>
        </object>
        <object placeholders="1" c4Type="Relationship" c4Technology="TCP" c4Description="Работа с данными" label="&lt;div style=&quot;text-align: left&quot;&gt;&lt;div style=&quot;text-align: center&quot;&gt;&lt;b&gt;%c4Description%&lt;/b&gt;&lt;/div&gt;&lt;div style=&quot;text-align: center&quot;&gt;[%c4Technology%]&lt;/div&gt;&lt;/div&gt;" id="t_hbJ4NrtsQYR_Xp0jw_-32">
          <mxCell style="endArrow=blockThin;html=1;fontSize=10;fontColor=#404040;strokeWidth=1;endFill=1;strokeColor=#828282;elbow=vertical;metaEdit=1;endSize=14;startSize=14;jumpStyle=arc;jumpSize=16;rounded=0;edgeStyle=orthogonalEdgeStyle;" parent="t_hbJ4NrtsQYR_Xp0jw_-1" source="t_hbJ4NrtsQYR_Xp0jw_-30" target="t_hbJ4NrtsQYR_Xp0jw_-31" edge="1">
            <mxGeometry x="-0.1429" width="240" relative="1" as="geometry">
              <mxPoint x="1040" y="920" as="sourcePoint" />
              <mxPoint x="1040" y="1040" as="targetPoint" />
              <mxPoint as="offset" />
            </mxGeometry>
          </mxCell>
        </object>
        <object placeholders="1" c4Type="Relationship" c4Technology="REST" c4Description="Получение/сохранение информации о клиентах" label="&lt;div style=&quot;text-align: left&quot;&gt;&lt;div style=&quot;text-align: center&quot;&gt;&lt;b&gt;%c4Description%&lt;/b&gt;&lt;/div&gt;&lt;div style=&quot;text-align: center&quot;&gt;[%c4Technology%]&lt;/div&gt;&lt;/div&gt;" id="t_hbJ4NrtsQYR_Xp0jw_-33">
          <mxCell style="endArrow=blockThin;html=1;fontSize=10;fontColor=#404040;strokeWidth=1;endFill=1;strokeColor=#828282;elbow=vertical;metaEdit=1;endSize=14;startSize=14;jumpStyle=arc;jumpSize=16;rounded=0;edgeStyle=orthogonalEdgeStyle;" parent="t_hbJ4NrtsQYR_Xp0jw_-1" source="t_hbJ4NrtsQYR_Xp0jw_-4" target="t_hbJ4NrtsQYR_Xp0jw_-30" edge="1">
            <mxGeometry x="0.3143" y="-30" width="240" relative="1" as="geometry">
              <mxPoint x="740" y="620" as="sourcePoint" />
              <mxPoint x="920" y="620" as="targetPoint" />
              <mxPoint as="offset" />
              <Array as="points">
                <mxPoint x="830" y="570" />
                <mxPoint x="830" y="400" />
              </Array>
            </mxGeometry>
          </mxCell>
        </object>
        <object placeholders="1" c4Type="Relationship" c4Technology="REST" c4Description="Получение/сохранение&#xa; информации о клиентах" label="&lt;div style=&quot;text-align: left&quot;&gt;&lt;div style=&quot;text-align: center&quot;&gt;&lt;b&gt;%c4Description%&lt;/b&gt;&lt;/div&gt;&lt;div style=&quot;text-align: center&quot;&gt;[%c4Technology%]&lt;/div&gt;&lt;/div&gt;" id="t_hbJ4NrtsQYR_Xp0jw_-34">
          <mxCell style="endArrow=blockThin;html=1;fontSize=10;fontColor=#404040;strokeWidth=1;endFill=1;strokeColor=#828282;elbow=vertical;metaEdit=1;endSize=14;startSize=14;jumpStyle=arc;jumpSize=16;rounded=0;edgeStyle=orthogonalEdgeStyle;" parent="t_hbJ4NrtsQYR_Xp0jw_-1" source="t_hbJ4NrtsQYR_Xp0jw_-5" target="t_hbJ4NrtsQYR_Xp0jw_-30" edge="1">
            <mxGeometry width="240" relative="1" as="geometry">
              <mxPoint x="740" y="580" as="sourcePoint" />
              <mxPoint x="920" y="410" as="targetPoint" />
              <mxPoint x="-1" as="offset" />
              <Array as="points">
                <mxPoint x="820" y="340" />
                <mxPoint x="820" y="340" />
              </Array>
            </mxGeometry>
          </mxCell>
        </object>
        <mxCell id="t_hbJ4NrtsQYR_Xp0jw_-35" value="" style="shape=cylinder3;whiteSpace=wrap;html=1;boundedLbl=1;backgroundOutline=1;size=15;fillColor=#FFFFFF;" parent="t_hbJ4NrtsQYR_Xp0jw_-1" vertex="1">
          <mxGeometry x="1015" y="485" width="75" height="200" as="geometry" />
        </mxCell>
        <mxCell id="t_hbJ4NrtsQYR_Xp0jw_-36" value="" style="shape=image;verticalLabelPosition=bottom;verticalAlign=top;imageAspect=0;aspect=fixed;image=data:image/svg+xml,PHN2ZyB4bWxucz0iaHR0cDovL3d3dy53My5vcmcvMjAwMC9zdmciIHdpZHRoPSIzMiIgaGVpZ2h0PSIzMiIgdmlld0JveD0iMCAwIDMyIDMyIiBmaWxsPSJub25lIj4mI3hhOzxwYXRoIGQ9Ik0wIDE2QzAgNy4xNjM0NCA3LjE2MzQ0IDAgMTYgMEMyNC44MzY2IDAgMzIgNy4xNjM0NCAzMiAxNkMzMiAyNC44MzY2IDI0LjgzNjYgMzIgMTYgMzJDNy4xNjM0NCAzMiAwIDI0LjgzNjYgMCAxNloiIGZpbGw9IiM1MjgyRkYiLz4mI3hhOzxwYXRoIGZpbGwtcnVsZT0iZXZlbm9kZCIgY2xpcC1ydWxlPSJldmVub2RkIiBkPSJNMTMuOTk5IDIzQzEzLjk5OSAyMi4xNiAxNC41MjIgMjEuNDQgMTUuMjYxIDIxLjE0N0MxNS4yNTMzIDIxLjA5ODQgMTUuMjQ5NyAyMS4wNDkyIDE1LjI1IDIxVjE4LjY0QzE1LjI1IDE4LjQ0IDE1LjMyODggMTguMjQ4IDE1LjQ2OTQgMTguMTA1OEMxNS42MSAxNy45NjM1IDE1LjgwMSAxNy44ODI0IDE2LjAwMSAxNy44OEMxNi4yMDA4IDE3Ljg4MjYgMTYuMzkxNiAxNy45NjM5IDE2LjUzMTkgMTguMTA2MUMxNi42NzIzIDE4LjI0ODQgMTYuNzUxIDE4LjQ0MDIgMTYuNzUxIDE4LjY0VjIxQzE2Ljc1MDMgMjEuMDQ5MyAxNi43NDU3IDIxLjA5ODUgMTYuNzM3IDIxLjE0N0MxNy4xNjc3IDIxLjMxOTQgMTcuNTI1MSAyMS42MzYzIDE3Ljc0NzcgMjIuMDQzM0MxNy45NzAzIDIyLjQ1MDQgMTguMDQ0MyAyMi45MjIyIDE3Ljk1NzEgMjMuMzc3OUMxNy44Njk4IDIzLjgzMzUgMTcuNjI2NiAyNC4yNDQ2IDE3LjI2OTQgMjQuNTQwNkMxNi45MTIxIDI0LjgzNjYgMTYuNDYyOSAyNC45OTkgMTUuOTk5IDI1QzE0Ljg5NSAyNSAxMy45OTkgMjQuMTA3IDEzLjk5OSAyM1pNNy45OTg5OSAyMUM3Ljk5ODk5IDE5Ljg5MyA4Ljg5NTk5IDE5IDkuOTk4OTkgMTlDMTAuMjQyIDE5IDEwLjQ3NyAxOS4wNCAxMC42OTMgMTkuMTJMMTEuODUzIDE3Ljg0QzExLjk4NjIgMTcuNjkzMSAxMi4xNzE1IDE3LjYwMzkgMTIuMzY5NCAxNy41OTE0QzEyLjU2NzMgMTcuNTc4OSAxMi43NjIzIDE3LjY0NCAxMi45MTMgMTcuNzczQzEzLjA2MDcgMTcuOTA3OCAxMy4xNDkzIDE4LjA5NTUgMTMuMTU5NiAxOC4yOTUyQzEzLjE2OTkgMTguNDk1IDEzLjEwMTEgMTguNjkwNyAxMi45NjggMTguODRMMTEuODAzIDIwLjEzM0MxMS45MzIxIDIwLjQwMzUgMTEuOTk4OCAyMC42OTk3IDExLjk5OCAyMC45OTk0QzExLjk5NzIgMjEuMjk5MiAxMS45MjkgMjEuNTk1IDExLjc5ODQgMjEuODY0OEMxMS42Njc5IDIyLjEzNDYgMTEuNDc4MyAyMi4zNzE3IDExLjI0MzcgMjIuNTU4M0MxMS4wMDkxIDIyLjc0NSAxMC43MzU2IDIyLjg3NjUgMTAuNDQzMyAyMi45NDMxQzEwLjE1MSAyMy4wMDk4IDkuODQ3NTIgMjMuMDA5OCA5LjU1NTIzIDIyLjk0MzNDOS4yNjI5MyAyMi44NzY3IDguOTg5MzUgMjIuNzQ1MyA4Ljc1NDczIDIyLjU1ODdDOC41MjAxIDIyLjM3MjEgOC4zMzA0NSAyMi4xMzUxIDguMTk5ODEgMjEuODY1M0M4LjA2OTE2IDIxLjU5NTUgOC4wMDA4NyAyMS4yOTk4IDcuOTk5OTkgMjFINy45OTg5OVpNMTkuOTk5IDIxQzE5Ljk5OSAyMC42NTMgMjAuMDgzIDIwLjMzMyAyMC4yMzUgMjAuMDUzTDE5LjM1MiAxOS4wNjdDMTkuMjI5NyAxOC45MTc2IDE5LjE2OTggMTguNzI2NyAxOS4xODQ3IDE4LjUzNDJDMTkuMTk5NiAxOC4zNDE3IDE5LjI4ODIgMTguMTYyNCAxOS40MzIgMTguMDMzNUMxOS41NzU4IDE3LjkwNDcgMTkuNzYzNyAxNy44MzYzIDE5Ljk1NjcgMTcuODQyNUMyMC4xNDk3IDE3Ljg0ODcgMjAuMzMyOCAxNy45MjkxIDIwLjQ2OCAxOC4wNjdMMjEuMzkgMTkuMDkzQzIxLjY2NDQgMTkuMDA3MyAyMS45NTQxIDE4Ljk4MTcgMjIuMjM5MyAxOS4wMTgxQzIyLjUyNDUgMTkuMDU0NSAyMi43OTg1IDE5LjE1MiAyMy4wNDI2IDE5LjMwNEMyMy4yODY2IDE5LjQ1NTkgMjMuNDk1MSAxOS42NTg3IDIzLjY1MzYgMTkuODk4NUMyMy44MTIyIDIwLjEzODQgMjMuOTE3MiAyMC40MDk2IDIzLjk2MTQgMjAuNjkzN0MyNC4wMDU2IDIwLjk3NzggMjMuOTg4IDIxLjI2OCAyMy45MDk4IDIxLjU0NDdDMjMuODMxNiAyMS44MjE0IDIzLjY5NDcgMjIuMDc3OSAyMy41MDgzIDIyLjI5NjhDMjMuMzIxOSAyMi41MTU4IDIzLjA5MDUgMjIuNjkxOSAyMi44Mjk5IDIyLjgxMzNDMjIuNTY5MiAyMi45MzQ2IDIyLjI4NTUgMjIuOTk4MyAyMS45OTggMjNDMjAuODk0IDIzIDE5Ljk5OCAyMi4xMDcgMTkuOTk4IDIxSDE5Ljk5OVpNMTEuOTk5IDE1QzExLjk5OSAxNC43MzczIDEyLjA1MDggMTQuNDc3MSAxMi4xNTEzIDE0LjIzNDRDMTIuMjUxOSAxMy45OTE3IDEyLjM5OTMgMTMuNzcxMiAxMi41ODUxIDEzLjU4NTRDMTIuNzcxIDEzLjM5OTcgMTIuOTkxNiAxMy4yNTI0IDEzLjIzNDMgMTMuMTUyQzEzLjQ3NzEgMTMuMDUxNSAxMy43MzczIDEyLjk5OTkgMTQgMTNIMTQuMDQ2QzE0LjE2MDkgMTIuNDM1IDE0LjQ2NzggMTEuOTI3MSAxNC45MTQ2IDExLjU2MjZDMTUuMzYxMyAxMS4xOTgxIDE1LjkyMDQgMTAuOTk5MyAxNi40OTcgMTFDMTcuMTU5IDEwLjk5OTcgMTcuNzk0MSAxMS4yNjIxIDE4LjI2MjkgMTEuNzI5NEMxOC43MzE4IDEyLjE5NjggMTguOTk2MSAxMi44MzEgMTguOTk4IDEzLjQ5M0wxOC45OTcgMTMuNTJDMTkuMDggMTMuNTA3IDE5LjE2NCAxMy41MDcgMTkuMjQ5IDEzLjUwN0MyMC4yMTQgMTMuNTA3IDIwLjk5OSAxNC4yOCAyMC45OTkgMTUuMjUzQzIwLjk5ODIgMTUuNzE1NCAyMC44MTQ0IDE2LjE1ODcgMjAuNDg3OSAxNi40ODZDMjAuMTYxMyAxNi44MTM0IDE5LjcxODQgMTYuOTk4MiAxOS4yNTYgMTdIMTRDMTMuNDY5NiAxNyAxMi45NjA5IDE2Ljc4OTMgMTIuNTg1OCAxNi40MTQyQzEyLjIxMDcgMTYuMDM5MSAxMiAxNS41MzA0IDEyIDE1SDExLjk5OVpNMTAuNzA2IDEzLjAyN0w5LjY3Mjk5IDExLjk4N0M5LjYxNTk5IDEyIDkuNTU3OTkgMTIgOS41MDA5OSAxMkM4LjY3Mjk5IDEyIDguMDAwOTkgMTEuMzMzIDguMDAwOTkgMTAuNDkzQzguMDAwOTkgOS42NjcwMSA4LjY3Mjk5IDkuMDAwMDEgOS41MDA5OSA5LjAwMDAxQzkuNzEzNDQgOC45OTkyNSA5LjkyMzYgOS4wNDM3NCAxMC4xMTc1IDkuMTMwNTNDMTAuMzExNCA5LjIxNzMyIDEwLjQ4NDYgOS4zNDQ0MSAxMC42MjU2IDkuNTAzMzVDMTAuNzY2NSA5LjY2MjI5IDEwLjg3MiA5Ljg0OTQzIDEwLjkzNSAxMC4wNTIzQzEwLjk5ODEgMTAuMjU1MiAxMS4wMTcxIDEwLjQ2OTIgMTAuOTkxIDEwLjY4TDEyLjAyMSAxMS43MDdDMTIuMTk1MiAxMS44ODI1IDEyLjI5MjkgMTIuMTE5OCAxMi4yOTI5IDEyLjM2N0MxMi4yOTI5IDEyLjYxNDMgMTIuMTk1MiAxMi44NTE1IDEyLjAyMSAxMy4wMjdDMTEuODQ1NyAxMy4xOTk3IDExLjYwOTUgMTMuMjk2NCAxMS4zNjM1IDEzLjI5NjRDMTEuMTE3NSAxMy4yOTY0IDEwLjg4MTMgMTMuMTk5NyAxMC43MDYgMTMuMDI3Wk0yMCAxMUMyMCAxMC40Njk2IDIwLjIxMDcgOS45NjA4NyAyMC41ODU4IDkuNTg1OEMyMC45NjA5IDkuMjEwNzIgMjEuNDY5NiA5LjAwMDAxIDIyIDkuMDAwMDFDMjIuNTMwNCA5LjAwMDAxIDIzLjAzOTEgOS4yMTA3MiAyMy40MTQyIDkuNTg1OEMyMy43ODkzIDkuOTYwODcgMjQgMTAuNDY5NiAyNCAxMUMyNCAxMS41MzA0IDIzLjc4OTMgMTIuMDM5MSAyMy40MTQyIDEyLjQxNDJDMjMuMDM5MSAxMi43ODkzIDIyLjUzMDQgMTMgMjIgMTNDMjEuNDY5NiAxMyAyMC45NjA5IDEyLjc4OTMgMjAuNTg1OCAxMi40MTQyQzIwLjIxMDcgMTIuMDM5MSAyMCAxMS41MzA0IDIwIDExWiIgZmlsbD0id2hpdGUiLz4mI3hhOzwvc3ZnPg==;" parent="t_hbJ4NrtsQYR_Xp0jw_-1" vertex="1">
          <mxGeometry x="1022.5" y="525" width="60" height="60" as="geometry" />
        </mxCell>
        <mxCell id="t_hbJ4NrtsQYR_Xp0jw_-37" value="Kafka" style="text;html=1;align=center;verticalAlign=middle;whiteSpace=wrap;rounded=0;fontSize=20;" parent="t_hbJ4NrtsQYR_Xp0jw_-1" vertex="1">
          <mxGeometry x="1007.5" y="600" width="90" height="45" as="geometry" />
        </mxCell>
        <mxCell id="t_hbJ4NrtsQYR_Xp0jw_-38" style="edgeStyle=orthogonalEdgeStyle;rounded=0;orthogonalLoop=1;jettySize=auto;html=1;entryX=0.996;entryY=0.849;entryDx=0;entryDy=0;entryPerimeter=0;" parent="t_hbJ4NrtsQYR_Xp0jw_-1" source="t_hbJ4NrtsQYR_Xp0jw_-16" target="t_hbJ4NrtsQYR_Xp0jw_-35" edge="1">
          <mxGeometry relative="1" as="geometry" />
        </mxCell>
        <mxCell id="ZnmZ3QIHZUYKDkfrhOhk-3" style="edgeStyle=orthogonalEdgeStyle;rounded=0;orthogonalLoop=1;jettySize=auto;html=1;" parent="t_hbJ4NrtsQYR_Xp0jw_-1" source="ZnmZ3QIHZUYKDkfrhOhk-0" edge="1">
          <mxGeometry relative="1" as="geometry">
            <mxPoint x="1090" y="520" as="targetPoint" />
          </mxGeometry>
        </mxCell>
        <object placeholders="1" c4Name="osago-aggregator" c4Type="Container" c4Technology="Kotlin, SpringBoot" c4Description="Сервис для взаимодействия по ОСАГО со страховыми компаниями" label="&lt;font style=&quot;font-size: 16px&quot;&gt;&lt;b&gt;%c4Name%&lt;/b&gt;&lt;/font&gt;&lt;div&gt;[%c4Type%: %c4Technology%]&lt;/div&gt;&lt;br&gt;&lt;div&gt;&lt;font style=&quot;font-size: 11px&quot;&gt;&lt;font color=&quot;#E6E6E6&quot;&gt;%c4Description%&lt;/font&gt;&lt;/div&gt;" id="ZnmZ3QIHZUYKDkfrhOhk-0">
          <mxCell style="rounded=1;whiteSpace=wrap;html=1;fontSize=11;labelBackgroundColor=none;fillColor=#23A2D9;fontColor=#ffffff;align=center;arcSize=10;strokeColor=#0E7DAD;metaEdit=1;resizable=0;points=[[0.25,0,0],[0.5,0,0],[0.75,0,0],[1,0.25,0],[1,0.5,0],[1,0.75,0],[0.75,1,0],[0.5,1,0],[0.25,1,0],[0,0.75,0],[0,0.5,0],[0,0.25,0]];" parent="t_hbJ4NrtsQYR_Xp0jw_-1" vertex="1">
            <mxGeometry x="1200" y="440" width="240" height="120" as="geometry" />
          </mxCell>
        </object>
        <mxCell id="ZnmZ3QIHZUYKDkfrhOhk-1" style="edgeStyle=orthogonalEdgeStyle;rounded=0;orthogonalLoop=1;jettySize=auto;html=1;entryX=0.063;entryY=0.017;entryDx=0;entryDy=0;entryPerimeter=0;" parent="t_hbJ4NrtsQYR_Xp0jw_-1" source="ZnmZ3QIHZUYKDkfrhOhk-0" target="t_hbJ4NrtsQYR_Xp0jw_-12" edge="1">
          <mxGeometry relative="1" as="geometry" />
        </mxCell>
        <mxCell id="ZnmZ3QIHZUYKDkfrhOhk-2" value="Запросы на создание заявки&lt;div&gt;и получение предложения&lt;/div&gt;&lt;div&gt;(REST)&lt;/div&gt;" style="edgeLabel;html=1;align=center;verticalAlign=middle;resizable=0;points=[];" parent="ZnmZ3QIHZUYKDkfrhOhk-1" vertex="1" connectable="0">
          <mxGeometry x="-0.4456" y="-2" relative="1" as="geometry">
            <mxPoint as="offset" />
          </mxGeometry>
        </mxCell>
        <mxCell id="ZnmZ3QIHZUYKDkfrhOhk-4" style="edgeStyle=orthogonalEdgeStyle;rounded=0;orthogonalLoop=1;jettySize=auto;html=1;" parent="t_hbJ4NrtsQYR_Xp0jw_-1" source="t_hbJ4NrtsQYR_Xp0jw_-4" edge="1">
          <mxGeometry relative="1" as="geometry">
            <mxPoint x="1015" y="520" as="targetPoint" />
            <Array as="points">
              <mxPoint x="873" y="590" />
              <mxPoint x="873" y="520" />
              <mxPoint x="1015" y="520" />
            </Array>
          </mxGeometry>
        </mxCell>
        <mxCell id="ZnmZ3QIHZUYKDkfrhOhk-7" value="Получение предложений&amp;nbsp;&lt;div&gt;по ОСАГО&lt;/div&gt;" style="edgeLabel;html=1;align=center;verticalAlign=middle;resizable=0;points=[];" parent="ZnmZ3QIHZUYKDkfrhOhk-4" vertex="1" connectable="0">
          <mxGeometry x="0.5043" y="1" relative="1" as="geometry">
            <mxPoint x="2" y="-23" as="offset" />
          </mxGeometry>
        </mxCell>
        <mxCell id="ZnmZ3QIHZUYKDkfrhOhk-5" style="edgeStyle=orthogonalEdgeStyle;rounded=0;orthogonalLoop=1;jettySize=auto;html=1;entryX=0.75;entryY=0;entryDx=0;entryDy=0;entryPerimeter=0;endArrow=classic;endFill=1;" parent="t_hbJ4NrtsQYR_Xp0jw_-1" source="t_hbJ4NrtsQYR_Xp0jw_-5" target="t_hbJ4NrtsQYR_Xp0jw_-4" edge="1">
          <mxGeometry relative="1" as="geometry">
            <Array as="points">
              <mxPoint x="670" y="470" />
              <mxPoint x="670" y="470" />
            </Array>
          </mxGeometry>
        </mxCell>
        <mxCell id="ZnmZ3QIHZUYKDkfrhOhk-6" value="Получение&amp;nbsp;&lt;span style=&quot;background-color: light-dark(#ffffff, var(--ge-dark-color, #121212)); color: light-dark(rgb(0, 0, 0), rgb(255, 255, 255));&quot;&gt;предложений&amp;nbsp;&lt;/span&gt;&lt;div&gt;&lt;div&gt;по ОСАГО&lt;/div&gt;&lt;div&gt;(WebSocet)&lt;/div&gt;&lt;/div&gt;" style="edgeLabel;html=1;align=center;verticalAlign=middle;resizable=0;points=[];" parent="ZnmZ3QIHZUYKDkfrhOhk-5" vertex="1" connectable="0">
          <mxGeometry y="1" relative="1" as="geometry">
            <mxPoint x="45" y="15" as="offset" />
          </mxGeometry>
        </mxCell>
        <mxCell id="U7t9EnIC2MddhSvPhwUM-0" value="" style="aspect=fixed;sketch=0;html=1;dashed=0;whitespace=wrap;verticalLabelPosition=bottom;verticalAlign=top;fillColor=#2875E2;strokeColor=#ffffff;points=[[0.005,0.63,0],[0.1,0.2,0],[0.9,0.2,0],[0.5,0,0],[0.995,0.63,0],[0.72,0.99,0],[0.5,1,0],[0.28,0.99,0]];shape=mxgraph.kubernetes.icon2;prIcon=quota" parent="t_hbJ4NrtsQYR_Xp0jw_-1" vertex="1">
          <mxGeometry x="674.58" y="440" width="41.67" height="40" as="geometry" />
        </mxCell>
        <mxCell id="Z8eyTf411dTOSoAi4C4m-1" value="" style="aspect=fixed;sketch=0;html=1;dashed=0;whitespace=wrap;verticalLabelPosition=bottom;verticalAlign=top;fillColor=#2875E2;strokeColor=#ffffff;points=[[0.005,0.63,0],[0.1,0.2,0],[0.9,0.2,0],[0.5,0,0],[0.995,0.63,0],[0.72,0.99,0],[0.5,1,0],[0.28,0.99,0]];shape=mxgraph.kubernetes.icon2;prIcon=job" parent="t_hbJ4NrtsQYR_Xp0jw_-1" vertex="1">
          <mxGeometry x="630" y="440" width="40" height="38.4" as="geometry" />
        </mxCell>
        <mxCell id="Z8eyTf411dTOSoAi4C4m-4" value="" style="aspect=fixed;sketch=0;html=1;dashed=0;whitespace=wrap;verticalLabelPosition=bottom;verticalAlign=top;fillColor=#2875E2;strokeColor=#ffffff;points=[[0.005,0.63,0],[0.1,0.2,0],[0.9,0.2,0],[0.5,0,0],[0.995,0.63,0],[0.72,0.99,0],[0.5,1,0],[0.28,0.99,0]];shape=mxgraph.kubernetes.icon2;prIcon=quota" parent="t_hbJ4NrtsQYR_Xp0jw_-1" vertex="1">
          <mxGeometry x="1460" y="510" width="41.67" height="40" as="geometry" />
        </mxCell>
      </root>
    </mxGraphModel>
  </diagram>
</mxfile>
